<svg xmlns="http://www.w3.org/2000/svg" width="193.002" height="164.827" viewBox="0 0 193.002 164.827">
  <g id="logo-avec-roxo-vertical" transform="translate(4743.172 182.46)">
    <g id="Grupo_142" data-name="Grupo 142" transform="translate(-4743.171 -66.675)">
      <path id="Caminho_124" data-name="Caminho 124" d="M-4547.083,70.175a15.883,15.883,0,0,0,2.517,6.732c3.6,5.3,8.751,7.184,14.938,6.533a16.655,16.655,0,0,0,9.65-4.517,4.319,4.319,0,0,1,6.068.441,4.118,4.118,0,0,1-.241,5.92,22.98,22.98,0,0,1-12.389,5.792,27.526,27.526,0,0,1-14.766-1.3c-8.473-3.357-13.435-9.636-14.884-18.589a24.73,24.73,0,0,1,3.523-17.805,22.671,22.671,0,0,1,15.919-10.4,23.854,23.854,0,0,1,15.191,2.043c6.338,3.219,10.037,8.5,11.557,15.348a32.728,32.728,0,0,1,.614,5.3,3.866,3.866,0,0,1-3.4,4.32,9.4,9.4,0,0,1-1.988.178l-31.361.007Zm.119-6.734h28.165c-1.077-7.9-6.461-12.911-13.748-12.947C-4540.7,50.455-4545.833,56.191-4546.964,63.442Z" transform="translate(4652.605 -42.535)" fill="#4b195f"/>
      <path id="Caminho_125" data-name="Caminho 125" d="M-4710.153,84.338a18.324,18.324,0,0,1-7.472,5.6,21.035,21.035,0,0,1-18.226-.983c-5.622-3.036-7.788-8.869-7.238-14.621.5-5.171,3.726-8.032,8.321-9.7a37.92,37.92,0,0,1,11.132-2.057c4.179-.208,8.366-.224,12.55-.323.292-.007.583,0,.923,0A16.971,16.971,0,0,0-4712,54.462a8.158,8.158,0,0,0-6.347-4.035,20.648,20.648,0,0,0-12.381,1.724c-.663.331-1.3.723-1.931,1.109a5.1,5.1,0,0,1-5.344-.1,3.388,3.388,0,0,1-.481-5.193,15.947,15.947,0,0,1,6.742-3.913,31.235,31.235,0,0,1,17.3-.613c6.789,1.706,10.734,6.258,12.125,13.011a36.222,36.222,0,0,1,.7,6.854c.084,7.878.049,15.758.028,23.637a4.279,4.279,0,0,1-5.616,4.309,4.233,4.233,0,0,1-2.943-3.966C-4710.17,86.38-4710.153,85.47-4710.153,84.338Zm-.134-15.655a3.788,3.788,0,0,0-.414-.041c-4.554.106-9.11.156-13.659.349a19.881,19.881,0,0,0-6.38,1.27,5.407,5.407,0,0,0-3.491,3.2,7.719,7.719,0,0,0,2.947,8.862c3,1.967,6.339,2.151,9.728,1.538,5.058-.916,8.3-4.028,10.063-8.77A19.792,19.792,0,0,0-4710.288,68.683Z" transform="translate(4743.171 -42.507)" fill="#4b195f"/>
      <path id="Caminho_126" data-name="Caminho 126" d="M-4421.527,90.67a28.345,28.345,0,0,1-13.408-.129,22.784,22.784,0,0,1-14.235-10.353c-8.62-13.7-2.169-34.085,16.823-37.209a25.084,25.084,0,0,1,20.667,5.438c1.413,1.145,2.475,2.447,2.357,4.381a3.986,3.986,0,0,1-2.672,3.762,3.907,3.907,0,0,1-4.447-.907,16.293,16.293,0,0,0-9.4-4.984,15.071,15.071,0,0,0-16.588,9.794c-2.441,6.812-1.614,13.247,3.5,18.635a15.231,15.231,0,0,0,20.133,1.4,16.483,16.483,0,0,0,2.235-1.95,4.24,4.24,0,0,1,6.052-.036,4.485,4.485,0,0,1-.191,6.288,23.238,23.238,0,0,1-10.767,5.856Z" transform="translate(4602.311 -42.547)" fill="#4b195f"/>
      <path id="Caminho_127" data-name="Caminho 127" d="M-4627.988,77.6c.349-.767.636-1.391.917-2.018q6.766-14.979,13.53-29.958a4.524,4.524,0,0,1,5.543-2.8,3.776,3.776,0,0,1,2.5,5.393q-9.215,20.346-18.45,40.683a4.227,4.227,0,0,1-4,2.608,3.843,3.843,0,0,1-3.721-2.587q-9.423-20.333-18.818-40.678a3.841,3.841,0,0,1,3.192-5.566,4.5,4.5,0,0,1,4.792,2.869q3.784,8.346,7.55,16.7,3.283,7.27,6.564,14.541C-4628.281,77.006-4628.168,77.225-4627.988,77.6Z" transform="translate(4698.382 -42.561)" fill="#4b195f"/>
    </g>
    <path id="Caminho_128" data-name="Caminho 128" d="M-4554.459-165.085a4.731,4.731,0,0,0-5.565,1.021c-.042.041-.084.078-.125.12-11.591,12.292-23.128,21.69-38.09,26.194l-16.681-41.735a4.728,4.728,0,0,0-4.392-2.976,4.73,4.73,0,0,0-4.394,2.976l-16.681,41.734c-14.961-4.5-26.5-13.9-38.089-26.194-.04-.042-.084-.079-.125-.119a4.735,4.735,0,0,0-5.567-1.022,4.732,4.732,0,0,0-2.138,6.34l31,62.564a4.737,4.737,0,0,0,4.428,2.626,4.727,4.727,0,0,0,4.2-2.972l12.206-30.542a86.389,86.389,0,0,0,15.153,1.29,86.384,86.384,0,0,0,15.153-1.29l12.207,30.542a4.732,4.732,0,0,0,4.2,2.972c.064,0,.127,0,.19,0a4.732,4.732,0,0,0,4.239-2.63l31-62.564A4.729,4.729,0,0,0-4554.459-165.085Zm-97.069,55.212-15.646-31.573a85.089,85.089,0,0,0,9.343,6.076,74.351,74.351,0,0,0,14.077,6.042Zm32.216-24.938a78.686,78.686,0,0,1-11.721-.844l11.721-29.325,11.72,29.325A78.679,78.679,0,0,1-4619.312-134.811Zm32.214,24.938-7.775-19.454a74.405,74.405,0,0,0,14.078-6.042,84.969,84.969,0,0,0,9.343-6.076Z" transform="translate(-27.359 0)" fill="#4b195f"/>
  </g>
</svg>
